<svg xmlns="http://www.w3.org/2000/svg"  viewBox="0 0 96 96" width="192px" height="192px" baseProfile="basic" fill="#0fd2ff"><path fill="#0fd2ff" d="M75.399,32l-54.544,0c-4.315,0-6.892-2.527-6.892-6.76c0-0.98,0.011-2.001,0.021-2.929	C13.992,21.557,14,20.867,14,20.314C14,16.538,16.411,14,20,14h42c1.044,0,1.963,0.533,2.5,1.341C65.037,14.533,65.956,14,67,14	c0.569,0,1.604,0.009,2.791,0.02c1.574,0.014,3.422,0.031,4.792,0.031c4.922,0,7.417,2.153,7.417,6.4	c0,0.563,0.008,1.262,0.016,2.023c0.008,0.766,0.017,1.595,0.02,2.419c0.006,1.521-0.173,3.732-1.788,5.355	C79.089,31.411,77.458,32,75.399,32z M20.03,25.908C20.146,25.944,20.397,26,20.855,26l54.544,0c0.264,0,0.443-0.02,0.558-0.041	c0.037-0.17,0.08-0.491,0.078-1.043c-0.003-0.811-0.012-1.626-0.02-2.378C76.008,21.752,76,21.032,76,20.451	c0-0.135-0.007-0.242-0.016-0.323c-0.236-0.042-0.656-0.078-1.401-0.078c-1.386,0-3.254-0.017-4.846-0.031	C68.573,20.009,67.559,20,67,20c-1.044,0-1.963-0.533-2.5-1.341C63.963,19.467,63.044,20,62,20H20.017	C20.007,20.08,20,20.184,20,20.314c0,0.571-0.008,1.283-0.016,2.061c-0.01,0.907-0.021,1.906-0.021,2.865	C19.964,25.599,20.003,25.805,20.03,25.908z M19.788,20.019L19.788,20.019L19.788,20.019z" opacity=".3"/><path fill="#0fd2ff" d="M75.399,31l-54.544,0c-3.744,0-5.892-2.1-5.892-5.76c0-0.977,0.011-1.994,0.021-2.918	C14.992,21.564,15,20.87,15,20.314C15,17.086,16.963,15,20,15h42c1.104,0,2,0.896,2,2s-0.896,2-2,2H20c-0.559,0-1,0-1,1.314	c0,0.568-0.008,1.276-0.016,2.05c-0.01,0.911-0.021,1.913-0.021,2.875c0,1.342,0.261,1.76,1.892,1.76l54.544,0	c0.642,0,1.13-0.105,1.305-0.281c0.102-0.102,0.336-0.481,0.331-1.808c-0.003-0.813-0.012-1.63-0.02-2.385	C77.008,21.745,77,21.029,77,20.451c0-1.159,0-1.4-2.417-1.4c-1.383,0-3.247-0.017-4.837-0.031C68.578,19.009,67.561,19,67,19	c-1.104,0-2-0.896-2-2s0.896-2,2-2c0.568,0,1.599,0.009,2.782,0.02c1.577,0.014,3.428,0.031,4.801,0.031c1.755,0,6.417,0,6.417,5.4	c0,0.566,0.008,1.268,0.016,2.034c0.008,0.764,0.017,1.59,0.02,2.412c0.005,1.343-0.144,3.287-1.497,4.646	C78.574,30.509,77.183,31,75.399,31z" opacity=".3"/><path fill="#0fd2ff" d="M75.399,56.932l-54.544,0c-4.315,0-6.892-2.527-6.892-6.761c0-0.98,0.011-2,0.021-2.928	C13.992,46.49,14,45.799,14,45.246c0-3.776,2.411-6.313,6-6.313h42c1.044,0,1.963,0.533,2.5,1.341	c0.537-0.809,1.456-1.341,2.5-1.341c0.569,0,1.604,0.009,2.791,0.02c1.574,0.014,3.422,0.03,4.792,0.03	c4.922,0,7.417,2.153,7.417,6.4c0,0.564,0.008,1.262,0.016,2.024c0.008,0.766,0.017,1.595,0.02,2.419	c0.006,1.521-0.173,3.732-1.789,5.354C79.089,56.343,77.458,56.932,75.399,56.932z M20.03,50.84	c0.116,0.036,0.367,0.092,0.825,0.092l54.544,0c0.264,0,0.443-0.02,0.558-0.041c0.037-0.17,0.08-0.491,0.078-1.043	c-0.003-0.812-0.012-1.626-0.02-2.379C76.008,46.684,76,45.964,76,45.382c0-0.135-0.007-0.242-0.016-0.323	c-0.236-0.042-0.656-0.078-1.401-0.078c-1.386,0-3.253-0.017-4.846-0.03c-1.164-0.011-2.179-0.02-2.737-0.02	c-1.044,0-1.963-0.533-2.5-1.341c-0.537,0.809-1.456,1.341-2.5,1.341H20.017C20.007,45.012,20,45.115,20,45.246	c0,0.571-0.008,1.284-0.016,2.061c-0.01,0.908-0.021,1.906-0.021,2.864C19.964,50.53,20.003,50.737,20.03,50.84z" opacity=".3"/><path fill="#0fd2ff" d="M75.399,55.932l-54.544,0c-3.744,0-5.892-2.1-5.892-5.761	c0-0.977,0.011-1.993,0.021-2.917C14.992,46.496,15,45.802,15,45.246c0-3.228,1.963-5.313,5-5.313h42c1.104,0,2,0.896,2,2	s-0.896,2-2,2H20c-0.559,0-1,0-1,1.313c0,0.568-0.008,1.277-0.016,2.05c-0.01,0.911-0.021,1.913-0.021,2.875	c0,1.343,0.261,1.761,1.892,1.761l54.544,0c0.642,0,1.13-0.105,1.305-0.281c0.102-0.102,0.336-0.481,0.331-1.808	c-0.003-0.813-0.012-1.63-0.02-2.385C77.008,46.677,77,45.961,77,45.382c0-1.159,0-1.4-2.417-1.4c-1.383,0-3.247-0.017-4.836-0.03	c-1.169-0.01-2.187-0.02-2.747-0.02c-1.104,0-2-0.896-2-2s0.896-2,2-2c0.568,0,1.599,0.009,2.782,0.02	c1.577,0.014,3.428,0.03,4.801,0.03c1.755,0,6.417,0,6.417,5.4c0,0.567,0.008,1.269,0.016,2.034c0.008,0.764,0.017,1.591,0.02,2.412	c0.005,1.343-0.144,3.287-1.497,4.646C78.574,55.441,77.182,55.932,75.399,55.932z" opacity=".3"/><path fill="#0fd2ff" d="M75.399,82l-54.544,0c-4.315,0-6.892-2.527-6.892-6.76c0-0.98,0.011-2.001,0.021-2.929	C13.992,71.557,14,70.867,14,70.314C14,66.538,16.411,64,20,64h42c1.044,0,1.963,0.533,2.5,1.341C65.037,64.533,65.956,64,67,64	c0.569,0,1.604,0.009,2.791,0.02c1.574,0.014,3.422,0.031,4.792,0.031c4.922,0,7.417,2.153,7.417,6.4	c0,0.563,0.008,1.262,0.016,2.023c0.008,0.766,0.017,1.595,0.02,2.419c0.006,1.521-0.173,3.732-1.788,5.355	C79.089,81.411,77.458,82,75.399,82z M20.03,75.908C20.146,75.944,20.397,76,20.855,76l54.544,0c0.264,0,0.443-0.02,0.558-0.041	c0.037-0.17,0.08-0.491,0.078-1.043c-0.003-0.811-0.012-1.626-0.02-2.378C76.008,71.752,76,71.032,76,70.451	c0-0.135-0.007-0.242-0.016-0.323c-0.236-0.042-0.656-0.078-1.401-0.078c-1.386,0-3.254-0.017-4.846-0.031	C68.573,70.009,67.559,70,67,70c-1.044,0-1.963-0.533-2.5-1.341C63.963,69.467,63.044,70,62,70H20.017	C20.007,70.08,20,70.184,20,70.314c0,0.571-0.008,1.283-0.016,2.061c-0.01,0.907-0.021,1.906-0.021,2.865	C19.964,75.599,20.003,75.805,20.03,75.908z M19.788,70.019L19.788,70.019L19.788,70.019z" opacity=".3"/><path fill="#0fd2ff" d="M75.399,81l-54.544,0c-3.744,0-5.892-2.1-5.892-5.76c0-0.977,0.011-1.994,0.021-2.918	C14.992,71.564,15,70.87,15,70.314C15,67.086,16.963,65,20,65h42c1.104,0,2,0.896,2,2s-0.896,2-2,2H20c-0.559,0-1,0-1,1.314	c0,0.568-0.008,1.276-0.016,2.05c-0.01,0.911-0.021,1.913-0.021,2.875c0,1.342,0.261,1.76,1.892,1.76l54.544,0	c0.642,0,1.13-0.105,1.305-0.281c0.102-0.102,0.336-0.481,0.331-1.808c-0.003-0.813-0.012-1.63-0.02-2.385	C77.008,71.745,77,71.029,77,70.451c0-1.159,0-1.4-2.417-1.4c-1.383,0-3.247-0.017-4.837-0.031C68.578,69.009,67.561,69,67,69	c-1.104,0-2-0.896-2-2s0.896-2,2-2c0.568,0,1.599,0.009,2.782,0.02c1.577,0.014,3.428,0.031,4.801,0.031c1.755,0,6.417,0,6.417,5.4	c0,0.566,0.008,1.268,0.016,2.034c0.008,0.764,0.017,1.59,0.02,2.412c0.005,1.343-0.144,3.287-1.497,4.646	C78.574,80.509,77.183,81,75.399,81z" opacity=".3"/><path fill="#0fd2ff" d="M75.399,30l-54.544,0c-3.2,0-4.892-1.646-4.892-4.76c0-0.974,0.011-1.986,0.021-2.908	C15.992,21.571,16,20.873,16,20.314C16,17.613,17.495,16,20,16h42c0.553,0,1,0.448,1,1s-0.447,1-1,1H20c-0.858,0-2,0.24-2,2.314	c0,0.565-0.008,1.27-0.016,2.039c-0.01,0.915-0.021,1.92-0.021,2.886c0,1.986,0.811,2.76,2.892,2.76l54.544,0	c0.97,0,1.628-0.188,2.013-0.575c0.431-0.432,0.628-1.232,0.623-2.518c-0.003-0.814-0.012-1.634-0.02-2.391	C78.008,21.739,78,21.026,78,20.451c0-2.053-0.854-2.4-3.417-2.4c-1.381,0-3.241-0.017-4.828-0.031C68.584,18.009,67.563,18,67,18	c-0.553,0-1-0.448-1-1s0.447-1,1-1c0.566,0,1.594,0.009,2.773,0.02c1.58,0.014,3.434,0.031,4.81,0.031c1.758,0,5.417,0,5.417,4.4	c0,0.569,0.008,1.275,0.016,2.045c0.008,0.761,0.017,1.585,0.02,2.405c0.005,1.264-0.127,2.854-1.206,3.936	C78.05,29.62,76.928,30,75.399,30z"/><path fill="#0fd2ff" d="M75.399,54.932l-54.544,0c-3.2,0-4.892-1.646-4.892-4.761c0-0.973,0.011-1.986,0.021-2.907	C15.992,46.503,16,45.805,16,45.246c0-2.701,1.495-4.313,4-4.313h42c0.553,0,1,0.448,1,1s-0.447,1-1,1H20c-0.858,0-2,0.24-2,2.313	c0,0.565-0.008,1.271-0.016,2.04c-0.01,0.915-0.021,1.92-0.021,2.886c0,1.987,0.811,2.761,2.892,2.761l54.544,0	c0.969,0,1.628-0.188,2.013-0.575c0.431-0.432,0.628-1.231,0.623-2.517c-0.003-0.815-0.012-1.634-0.02-2.392	C78.008,46.67,78,45.958,78,45.382c0-2.053-0.854-2.4-3.417-2.4c-1.381,0-3.241-0.017-4.827-0.03c-1.172-0.01-2.193-0.02-2.756-0.02	c-0.553,0-1-0.448-1-1s0.447-1,1-1c0.566,0,1.594,0.009,2.773,0.02c1.58,0.014,3.434,0.03,4.81,0.03c1.758,0,5.417,0,5.417,4.4	c0,0.57,0.008,1.275,0.016,2.045c0.008,0.762,0.017,1.586,0.02,2.405c0.005,1.264-0.127,2.854-1.206,3.936	C78.05,54.551,76.928,54.932,75.399,54.932z"/><path fill="#0fd2ff" d="M75.399,80l-54.544,0c-3.2,0-4.892-1.646-4.892-4.76c0-0.974,0.011-1.986,0.021-2.908	C15.992,71.571,16,70.873,16,70.314C16,67.613,17.495,66,20,66h42c0.553,0,1,0.448,1,1s-0.447,1-1,1H20c-0.858,0-2,0.24-2,2.314	c0,0.565-0.008,1.27-0.016,2.039c-0.01,0.915-0.021,1.92-0.021,2.886c0,1.986,0.811,2.76,2.892,2.76l54.544,0	c0.97,0,1.628-0.188,2.013-0.575c0.431-0.432,0.628-1.232,0.623-2.518c-0.003-0.814-0.012-1.634-0.02-2.391	C78.008,71.739,78,71.026,78,70.451c0-2.053-0.854-2.4-3.417-2.4c-1.381,0-3.241-0.017-4.828-0.031C68.584,68.009,67.563,68,67,68	c-0.553,0-1-0.448-1-1s0.447-1,1-1c0.566,0,1.594,0.009,2.773,0.02c1.58,0.014,3.434,0.031,4.81,0.031c1.758,0,5.417,0,5.417,4.4	c0,0.569,0.008,1.275,0.016,2.045c0.008,0.761,0.017,1.585,0.02,2.405c0.005,1.264-0.127,2.854-1.206,3.936	C78.05,79.62,76.928,80,75.399,80z"/></svg>